HIERARCHY
ROOT Hips
{
	OFFSET 0.000000 0.000000 0.000000
	CHANNELS 6 Xposition Yposition Zposition Xrotation Yrotation Zrotation
	JOINT LeftUpLeg_virtual
	{
		OFFSET 0.000000 0.000000 0.000000
		CHANNELS 3 Xrotation Yrotation Zrotation
		JOINT LeftUpLeg
		{
			OFFSET 11.394100 -6.187798 -0.413800
			CHANNELS 3 Xrotation Yrotation Zrotation
			JOINT LeftLeg
			{
				OFFSET 0.430247 -32.302673 3.732800
				CHANNELS 3 Xrotation Yrotation Zrotation
				JOINT LeftFoot
				{
					OFFSET -0.430247 -48.264931 -6.423300
					CHANNELS 3 Xrotation Yrotation Zrotation
					JOINT LeftToeBase
					{
						OFFSET 4.230900 -16.068199 23.438400
						CHANNELS 3 Xrotation Yrotation Zrotation
						JOINT LeftToe_End
						{
							OFFSET 4.510700 0.695400 19.974600
							CHANNELS 3 Xrotation Yrotation Zrotation
							End Site
							{
								OFFSET 0 0 0
							}
						}
					}
				}
			}
		}
	}
	JOINT RightUpLeg_virtual
	{
		OFFSET 0.000000 0.000000 0.000000
		CHANNELS 3 Xrotation Yrotation Zrotation
		JOINT RightUpLeg
		{
			OFFSET -11.333700 -6.187798 -0.413800
			CHANNELS 3 Xrotation Yrotation Zrotation
			JOINT RightLeg
			{
				OFFSET -0.430392 -32.302628 3.733000
				CHANNELS 3 Xrotation Yrotation Zrotation
				JOINT RightFoot
				{
					OFFSET 0.430392 -48.264973 -6.423500
					CHANNELS 3 Xrotation Yrotation Zrotation
					JOINT RightToeBase
					{
						OFFSET -4.230900 -16.068199 23.438400
						CHANNELS 3 Xrotation Yrotation Zrotation
						JOINT RightToe_End
						{
							OFFSET -4.510700 0.695400 19.974600
							CHANNELS 3 Xrotation Yrotation Zrotation
							End Site
							{
								OFFSET 0 0 0
							}
						}
					}
				}
			}
		}
	}
	JOINT Spine_virtual
	{
		OFFSET 0.000000 0.000000 0.000000
		CHANNELS 3 Xrotation Yrotation Zrotation
		JOINT Spine
		{
			OFFSET -0.002400 12.777504 0.315300
			CHANNELS 3 Xrotation Yrotation Zrotation
			JOINT Spine1
			{
				OFFSET -0.002067 5.816869 0.032633
				CHANNELS 3 Xrotation Yrotation Zrotation
				JOINT Spine1_split
				{
					OFFSET -0.002067 5.816869 0.032633
					CHANNELS 3 Xrotation Yrotation Zrotation
					JOINT Spine2
					{
						OFFSET -0.002067 5.816869 0.032633
						CHANNELS 3 Xrotation Yrotation Zrotation
						JOINT Neck_virtual
						{
							OFFSET 0.000000 0.000000 0.000000
							CHANNELS 3 Xrotation Yrotation Zrotation
							JOINT Neck
							{
								OFFSET -0.003700 21.199493 -0.826900
								CHANNELS 3 Xrotation Yrotation Zrotation
								JOINT Head
								{
									OFFSET 0.000000 20.442200 4.834800
									CHANNELS 3 Xrotation Yrotation Zrotation
									JOINT HeadTop_End
									{
										OFFSET 0.000000 34.668396 4.968400
										CHANNELS 3 Xrotation Yrotation Zrotation
										End Site
										{
											OFFSET 0 0 0
										}
									}
								}
							}
						}
						JOINT LeftShoulder_virtual
						{
							OFFSET 0.000000 0.000000 0.000000
							CHANNELS 3 Xrotation Yrotation Zrotation
							JOINT LeftShoulder
							{
								OFFSET 3.288150 8.794197 -1.372250
								CHANNELS 3 Xrotation Yrotation Zrotation
								JOINT LeftShoulder_split
								{
									OFFSET 3.288150 8.794197 -1.372250
									CHANNELS 3 Xrotation Yrotation Zrotation
									JOINT LeftArm
									{
										OFFSET 11.953299 -2.279007 -0.146200
										CHANNELS 3 Xrotation Yrotation Zrotation
										JOINT LeftForeArm
										{
											OFFSET 18.448900 0.000000 0.000000
											CHANNELS 3 Xrotation Yrotation Zrotation
											JOINT LeftHand
											{
												OFFSET 29.527798 0.000000 0.000000
												CHANNELS 3 Xrotation Yrotation Zrotation
												End Site
												{
													OFFSET 0 0 0
												}
											}
										}
									}
								}
							}
						}
						JOINT RightShoulder_virtual
						{
							OFFSET 0.000000 0.000000 0.000000
							CHANNELS 3 Xrotation Yrotation Zrotation
							JOINT RightShoulder
							{
								OFFSET -3.249400 8.794197 -1.372250
								CHANNELS 3 Xrotation Yrotation Zrotation
								JOINT RightShoulder_split
								{
									OFFSET -3.249400 8.794197 -1.372250
									CHANNELS 3 Xrotation Yrotation Zrotation
									JOINT RightArm
									{
										OFFSET -11.953299 -2.279007 -0.146200
										CHANNELS 3 Xrotation Yrotation Zrotation
										JOINT RightForeArm
										{
											OFFSET -18.448900 0.000000 0.000000
											CHANNELS 3 Xrotation Yrotation Zrotation
											JOINT RightHand
											{
												OFFSET -29.527802 0.000000 0.000000
												CHANNELS 3 Xrotation Yrotation Zrotation
												End Site
												{
													OFFSET 0 0 0
												}
											}
										}
									}
								}
							}
						}
					}
				}
			}
		}
	}
}
MOTION
Frames: 7
Frame Time: 0.03333333
22.145174 91.371552 6.648914 0.000000 0.000000 0.000000 156.448147 -65.730585 162.829729 -60.271474 40.925677 47.669734 37.878358 -1.213438 -3.677121 7.517240 9.640214 -2.497954 2.495517 8.081170 -18.598301 0.000000 0.000000 0.000000 157.916132 -66.080414 165.838359 -49.411883 -17.113594 -28.873583 30.785462 -6.916151 -2.127006 -8.951085 -2.392616 9.556505 3.721327 6.840998 0.828970 0.000000 0.000000 0.000000 149.735765 -68.997191 155.605329 10.632430 -3.378407 -0.894992 5.440947 -3.128187 -2.800507 0.337805 -1.518714 0.952719 0.000000 0.000000 0.000000 -1.722391 -4.880570 -1.921311 4.645636 14.372811 -2.349592 -15.275634 11.224843 -3.270828 0.000000 0.000000 0.000000 -1.627927 -5.409245 -1.577291 -1.130881 -9.864306 -5.540226 0.350452 0.630997 0.808367 -25.133522 -14.224412 -47.847620 -14.561391 -28.044883 -14.616246 0.000000 0.000000 0.000000 -3.478283 -5.654461 -1.876781 -5.531832 19.167382 3.733191 1.357738 -3.503810 0.186251 -12.557112 -11.074136 60.463423 10.584240 38.231041 -2.125824 0.000000 0.000000 0.000000 
22.434118 91.113388 5.224270 0.000000 0.000000 0.000000 156.290711 -64.042394 162.887895 -63.685579 39.280343 49.885202 39.980772 -4.459278 -3.194895 12.202509 7.683895 -0.354851 0.152904 9.273524 -22.712124 0.000000 0.000000 0.000000 158.376336 -63.458837 166.532661 -51.117587 -16.961646 -28.528541 31.617844 -5.937296 -1.764448 -10.414415 -0.832230 9.588308 3.409166 7.453838 0.451481 0.000000 0.000000 0.000000 150.281278 -66.506911 156.469279 10.875855 -3.357226 -1.139430 4.725275 -2.203954 -2.906854 0.436872 -1.826177 0.824905 0.000000 0.000000 0.000000 -2.479411 -3.879210 -1.994811 3.974763 15.967447 -3.412324 -15.701828 12.796354 -3.306990 0.000000 0.000000 0.000000 -2.385394 -4.354521 -1.688930 -0.949636 -9.400157 -5.621866 0.358490 0.443320 0.475821 -25.510031 -15.703575 -47.995903 -15.777771 -30.483769 -14.843791 0.000000 0.000000 0.000000 -4.122311 -4.582442 -1.967087 -5.656765 18.999711 3.653196 1.353455 -3.433832 -0.035154 -11.883390 -11.236389 60.722144 12.757584 38.098782 -3.464869 0.000000 0.000000 0.000000 
22.611504 90.916100 4.050091 0.000000 0.000000 0.000000 156.387085 -62.605562 163.069674 -66.094805 38.143123 51.191264 41.162063 -7.361794 -2.557083 15.516603 6.231065 2.399864 -1.672048 9.698884 -25.167763 0.000000 0.000000 0.000000 158.812280 -61.174343 167.106971 -52.056727 -16.526783 -28.071261 32.776609 -5.040295 -1.459008 -12.380333 0.512173 9.348249 3.415933 7.695434 0.780623 0.000000 0.000000 0.000000 150.891952 -64.319345 157.342929 11.203805 -3.281554 -1.225418 4.059760 -1.314900 -3.093602 0.578780 -2.186600 0.763827 0.000000 0.000000 0.000000 -3.220691 -2.915185 -2.123424 3.451425 17.457576 -4.273909 -15.870240 14.167628 -3.282085 0.000000 0.000000 0.000000 -3.114273 -3.343205 -1.870195 -0.803323 -9.106779 -5.617329 0.635899 0.325821 0.251782 -25.877025 -15.756569 -48.346575 -17.123708 -32.956021 -15.243345 0.000000 0.000000 0.000000 -4.725427 -3.546973 -2.121332 -5.704813 18.821537 3.459406 1.243048 -3.359723 -0.232964 -10.857514 -11.428587 60.874710 14.594700 37.971873 -4.604660 0.000000 0.000000 0.000000 
22.637815 90.780983 3.000282 0.000000 0.000000 0.000000 156.677969 -61.318419 163.290958 -68.127278 37.228212 52.155625 41.438157 -9.975766 -2.035087 17.140209 5.109152 4.917498 -0.723119 8.687925 -26.091920 0.000000 0.000000 0.000000 159.196970 -59.240211 167.533516 -52.160567 -15.831991 -27.477853 34.199631 -4.389626 -1.202168 -14.940405 1.563168 8.685295 4.159712 7.634381 1.457061 0.000000 0.000000 0.000000 151.673967 -62.357974 158.278241 11.628879 -3.182774 -1.142138 3.451711 -0.491084 -3.340610 0.668927 -2.498107 0.755472 0.000000 0.000000 0.000000 -3.938982 -2.020094 -2.307618 3.074195 18.773236 -4.929011 -15.772164 15.302356 -3.159111 0.000000 0.000000 0.000000 -3.809515 -2.396311 -2.107041 -0.708505 -8.946954 -5.593314 1.086124 0.283673 0.116124 -26.149106 -14.533954 -48.698972 -18.469397 -35.270048 -15.727798 0.000000 0.000000 0.000000 -5.293358 -2.589048 -2.346235 -5.677555 18.609933 3.192373 1.060797 -3.421202 -0.405527 -9.628967 -11.605529 60.794612 15.986090 37.864557 -5.466940 0.000000 0.000000 0.000000 
22.430088 90.678787 2.151039 0.000000 0.000000 0.000000 157.228127 -60.004619 163.691426 -70.616902 35.921485 53.324766 41.615772 -12.608940 -1.699172 18.626196 3.804715 6.152996 2.643695 6.265873 -24.913316 0.000000 0.000000 0.000000 159.529928 -57.592196 167.808896 -51.743024 -14.753412 -26.794103 35.740194 -3.846532 -0.998437 -17.649584 2.442984 8.048469 5.071547 7.369829 2.179059 0.000000 0.000000 0.000000 152.522400 -60.587739 159.076513 12.135109 -3.060290 -0.892236 2.906762 0.268262 -3.628438 0.619223 -2.621227 0.952014 0.000000 0.000000 0.000000 -4.601350 -1.191325 -2.531714 2.854571 19.862576 -5.418620 -15.444723 16.135683 -2.897594 0.000000 0.000000 0.000000 -4.479994 -1.509609 -2.382365 -0.670932 -8.924148 -5.598914 1.704276 0.326469 0.063748 -26.200720 -12.427000 -48.977770 -19.694907 -37.247439 -16.171040 0.000000 0.000000 0.000000 -5.822631 -1.706879 -2.628100 -5.610483 18.385741 2.962207 0.816760 -3.582753 -0.557433 -8.248490 -11.692710 60.474085 16.803182 37.643116 -5.966516 0.000000 0.000000 0.000000 
21.971464 90.550690 1.367249 0.000000 0.000000 0.000000 158.063036 -58.608801 164.329120 -72.892373 34.007488 54.057949 42.029129 -15.417651 -1.375509 20.712047 2.073992 5.992686 4.818168 3.444444 -20.447582 0.000000 0.000000 0.000000 160.062533 -55.907602 168.226425 -51.261874 -13.396761 -26.172494 37.121969 -3.288873 -0.861659 -19.656180 3.187774 7.914525 5.371454 6.980956 2.649868 0.000000 0.000000 0.000000 153.545111 -58.878164 159.874689 12.686597 -2.893267 -0.536280 2.415081 1.005448 -3.927602 0.517448 -2.715647 1.139811 0.000000 0.000000 0.000000 -5.179602 -0.400996 -2.772046 2.810728 20.663137 -5.847312 -14.991072 16.596460 -2.487156 0.000000 0.000000 0.000000 -5.118403 -0.657985 -2.673417 -0.679473 -8.994447 -5.692556 2.452797 0.277704 0.033838 -25.895441 -9.932333 -49.088508 -20.675780 -38.824349 -16.490399 0.000000 0.000000 0.000000 -6.330434 -0.881984 -2.932589 -5.503664 18.157593 2.836597 0.466978 -3.746711 -0.594612 -6.701880 -11.759268 59.992044 16.948758 37.041086 -6.032132 0.000000 0.000000 0.000000 
21.185572 90.344864 0.689682 0.000000 0.000000 0.000000 159.225944 -57.006087 165.305317 -74.034449 32.064180 53.706918 42.465851 -17.572991 -1.071056 21.595629 0.633988 5.815624 3.446046 0.778124 -13.251813 0.000000 0.000000 0.000000 160.900160 -54.061535 168.931943 -50.829947 -11.999655 -25.574989 38.293261 -2.695743 -0.785853 -20.631367 3.770705 8.277435 5.135879 6.530215 2.768068 0.000000 0.000000 0.000000 154.793287 -57.163892 160.827336 13.237290 -2.648214 -0.161081 1.967370 1.757735 -4.201358 0.320388 -2.730252 1.339673 0.000000 0.000000 0.000000 -5.653796 0.385091 -2.993103 2.911491 21.142535 -6.296326 -14.535396 16.638486 -1.926961 0.000000 0.000000 0.000000 -5.714757 0.195057 -2.952894 -0.712831 -9.109497 -5.857682 3.219951 0.154683 -0.003391 -25.037826 -7.502344 -49.021531 -21.327214 -39.988118 -16.626533 0.000000 0.000000 0.000000 -6.810590 -0.079341 -3.229363 -5.349956 17.916652 2.818985 0.177758 -3.745455 -0.610634 -4.970470 -11.856260 59.503071 16.388317 35.958829 -5.689312 0.000000 0.000000 0.000000 
